<?xml version="1.0" standalone="no"?>
<!DOCTYPE svg PUBLIC "-//W3C//DTD SVG 20010904//EN"
 "http://www.w3.org/TR/2001/REC-SVG-20010904/DTD/svg10.dtd">
<svg version="1.0" xmlns="http://www.w3.org/2000/svg"
 width="33.000000pt" height="33.000000pt" viewBox="0 0 33.000000 33.000000"
 preserveAspectRatio="xMidYMid meet">
<metadata>
Created by potrace 1.10, written by Peter Selinger 2001-2011
</metadata>
<g transform="translate(0.000000,33.000000) scale(0.100000,-0.100000)"
fill="#000000" stroke="none">
<path d="M110 299 c-25 -34 -25 -54 0 -88 37 -53 130 -21 130 44 0 65 -93 97
-130 44z m93 9 c1 -1 8 -13 15 -26 11 -19 11 -29 0 -53 -14 -31 -14 -31 -53
-31 -39 0 -39 0 -53 31 -11 24 -11 34 0 53 7 13 16 26 20 29 8 5 68 4 71 -3z"/>
<path d="M144 265 c-4 -9 -2 -21 4 -27 15 -15 44 -1 40 19 -4 23 -36 29 -44 8z"/>
<path d="M50 131 c0 -11 -4 -23 -10 -26 -5 -3 -10 -14 -10 -24 0 -10 -7 -24
-15 -31 -8 -7 -15 -21 -15 -31 0 -18 10 -19 165 -19 155 0 165 1 165 19 0 10
-7 24 -15 31 -8 7 -15 21 -15 31 0 10 -4 21 -10 24 -5 3 -10 15 -10 26 0 18
-8 19 -115 19 -107 0 -115 -1 -115 -19z m110 -5 c0 -7 -6 -19 -14 -25 -8 -7
-17 -23 -20 -37 -8 -31 -21 -24 -42 24 -10 20 -19 40 -21 45 -2 4 19 7 46 7
37 0 51 -4 51 -14z m100 1 c0 -17 -28 -75 -40 -82 -5 -3 -12 5 -16 19 -3 14
-12 30 -20 37 -28 23 -16 39 31 39 31 0 45 -4 45 -13z m-184 -44 c3 -10 12
-30 20 -45 l15 -28 -50 0 c-38 0 -51 4 -51 14 0 8 5 18 11 21 5 4 14 18 19 31
11 28 28 31 36 7z m104 -2 c0 -10 7 -24 15 -31 29 -24 18 -40 -30 -40 -48 0
-59 16 -30 40 8 7 15 21 15 31 0 11 7 19 15 19 8 0 15 -8 15 -19z m119 -21
c12 -22 21 -43 21 -45 0 -3 -23 -5 -51 -5 l-50 0 15 27 c8 16 17 36 20 46 9
27 22 20 45 -23z"/>
</g>
</svg>
